<svg xmlns="http://www.w3.org/2000/svg" xmlns:svgjs="http://svgjs.dev/svgjs" xmlns:xlink="http://www.w3.org/1999/xlink" width="800" height="800" opacity=".77" version="1.1" viewBox="0 0 800 800"><g fill="none" stroke="#f9004d" stroke-width="1.5"><circle cx="0" cy="0" r="4.079" fill="#f9004d" stroke="none" opacity=".35"/><circle cx="57.143" cy="0" r="4.079" fill="#f9004d" stroke="none" opacity=".35"/><circle cx="114.286" cy="0" r="4.079" fill="#f9004d" stroke="none" opacity=".35"/><circle cx="171.429" cy="0" r="4.079" fill="#f9004d" stroke="none" opacity=".35"/><circle cx="228.571" cy="0" r="4.079" fill="#f9004d" stroke="none" opacity=".35"/><circle cx="285.714" cy="0" r="4.079" fill="#f9004d" stroke="none" opacity=".35"/><circle cx="342.857" cy="0" r="4.079" fill="#f9004d" stroke="none" opacity=".35"/><circle cx="400" cy="0" r="4.079" fill="#f9004d" stroke="none" opacity=".35"/><circle cx="457.143" cy="0" r="4.079" fill="#f9004d" stroke="none" opacity=".35"/><circle cx="514.286" cy="0" r="4.079" fill="#f9004d" stroke="none" opacity=".35"/><circle cx="571.429" cy="0" r="4.079" fill="#f9004d" stroke="none" opacity=".35"/><circle cx="628.571" cy="0" r="4.079" fill="#f9004d" stroke="none" opacity=".35"/><circle cx="685.714" cy="0" r="4.079" fill="#f9004d" stroke="none" opacity=".35"/><circle cx="742.857" cy="0" r="4.079" fill="#f9004d" stroke="none" opacity=".35"/><circle cx="800" cy="0" r="4.079" fill="#f9004d" stroke="none" opacity=".35"/><circle cx="0" cy="80" r="4.079" fill="#f9004d" stroke="none" opacity=".35"/><circle cx="57.143" cy="80" r="4.079" fill="#f9004d" stroke="none" opacity=".35"/><circle cx="114.286" cy="80" r="4.079" fill="#f9004d" stroke="none" opacity=".35"/><circle cx="171.429" cy="80" r="4.079" fill="#f9004d" stroke="none" opacity=".35"/><circle cx="228.571" cy="80" r="4.079" fill="#f9004d" stroke="none" opacity=".35"/><circle cx="285.714" cy="80" r="4.079" fill="#f9004d" stroke="none"/><circle cx="342.857" cy="80" r="4.079" fill="#f9004d" stroke="none" opacity=".35"/><circle cx="400" cy="80" r="4.079" fill="#f9004d" stroke="none" opacity=".35"/><circle cx="457.143" cy="80" r="4.079" fill="#f9004d" stroke="none"/><circle cx="514.286" cy="80" r="4.079" fill="#f9004d" stroke="none"/><circle cx="571.429" cy="80" r="4.079" fill="#f9004d" stroke="none" opacity=".35"/><circle cx="628.571" cy="80" r="4.079" fill="#f9004d" stroke="none" opacity=".35"/><circle cx="685.714" cy="80" r="4.079" fill="#f9004d" stroke="none"/><circle cx="742.857" cy="80" r="4.079" fill="#f9004d" stroke="none" opacity=".35"/><circle cx="800" cy="80" r="4.079" fill="#f9004d" stroke="none" opacity=".35"/><circle cx="0" cy="160" r="4.079" fill="#f9004d" stroke="none" opacity=".35"/><circle cx="57.143" cy="160" r="4.079" fill="#f9004d" stroke="none" opacity=".35"/><circle cx="114.286" cy="160" r="4.079" fill="#f9004d" stroke="none" opacity=".35"/><circle cx="171.429" cy="160" r="4.079" fill="#f9004d" stroke="none"/><circle cx="228.571" cy="160" r="4.079" fill="#f9004d" stroke="none" opacity=".35"/><circle cx="285.714" cy="160" r="4.079" fill="#f9004d" stroke="none" opacity=".35"/><circle cx="342.857" cy="160" r="4.079" fill="#f9004d" stroke="none" opacity=".35"/><circle cx="400" cy="160" r="4.079" fill="#f9004d" stroke="none" opacity=".35"/><circle cx="457.143" cy="160" r="4.079" fill="#f9004d" stroke="none"/><circle cx="514.286" cy="160" r="4.079" fill="#f9004d" stroke="none" opacity=".35"/><circle cx="571.429" cy="160" r="4.079" fill="#f9004d" stroke="none" opacity=".35"/><circle cx="628.571" cy="160" r="4.079" fill="#f9004d" stroke="none"/><circle cx="685.714" cy="160" r="4.079" fill="#f9004d" stroke="none" opacity=".35"/><circle cx="742.857" cy="160" r="4.079" fill="#f9004d" stroke="none" opacity=".35"/><circle cx="800" cy="160" r="4.079" fill="#f9004d" stroke="none" opacity=".35"/><circle cx="0" cy="240" r="4.079" fill="#f9004d" stroke="none" opacity=".35"/><circle cx="57.143" cy="240" r="4.079" fill="#f9004d" stroke="none" opacity=".35"/><circle cx="114.286" cy="240" r="4.079" fill="#f9004d" stroke="none" opacity=".35"/><circle cx="171.429" cy="240" r="4.079" fill="#f9004d" stroke="none" opacity=".35"/><circle cx="228.571" cy="240" r="4.079" fill="#f9004d" stroke="none" opacity=".35"/><circle cx="285.714" cy="240" r="4.079" fill="#f9004d" stroke="none"/><circle cx="342.857" cy="240" r="4.079" fill="#f9004d" stroke="none"/><circle cx="400" cy="240" r="4.079" fill="#f9004d" stroke="none"/><circle cx="457.143" cy="240" r="4.079" fill="#f9004d" stroke="none"/><circle cx="514.286" cy="240" r="4.079" fill="#f9004d" stroke="none" opacity=".35"/><circle cx="571.429" cy="240" r="4.079" fill="#f9004d" stroke="none" opacity=".35"/><circle cx="628.571" cy="240" r="4.079" fill="#f9004d" stroke="none" opacity=".35"/><circle cx="685.714" cy="240" r="4.079" fill="#f9004d" stroke="none" opacity=".35"/><circle cx="742.857" cy="240" r="4.079" fill="#f9004d" stroke="none" opacity=".35"/><circle cx="800" cy="240" r="4.079" fill="#f9004d" stroke="none" opacity=".35"/><circle cx="0" cy="320" r="4.079" fill="#f9004d" stroke="none" opacity=".35"/><circle cx="57.143" cy="320" r="4.079" fill="#f9004d" stroke="none" opacity=".35"/><circle cx="114.286" cy="320" r="4.079" fill="#f9004d" stroke="none" opacity=".35"/><circle cx="171.429" cy="320" r="4.079" fill="#f9004d" stroke="none" opacity=".35"/><circle cx="228.571" cy="320" r="4.079" fill="#f9004d" stroke="none" opacity=".35"/><circle cx="285.714" cy="320" r="4.079" fill="#f9004d" stroke="none" opacity=".35"/><circle cx="342.857" cy="320" r="4.079" fill="#f9004d" stroke="none" opacity=".35"/><circle cx="400" cy="320" r="4.079" fill="#f9004d" stroke="none" opacity=".35"/><circle cx="457.143" cy="320" r="4.079" fill="#f9004d" stroke="none" opacity=".35"/><circle cx="514.286" cy="320" r="4.079" fill="#f9004d" stroke="none" opacity=".35"/><circle cx="571.429" cy="320" r="4.079" fill="#f9004d" stroke="none" opacity=".35"/><circle cx="628.571" cy="320" r="4.079" fill="#f9004d" stroke="none"/><circle cx="685.714" cy="320" r="4.079" fill="#f9004d" stroke="none"/><circle cx="742.857" cy="320" r="4.079" fill="#f9004d" stroke="none" opacity=".35"/><circle cx="800" cy="320" r="4.079" fill="#f9004d" stroke="none" opacity=".35"/><circle cx="0" cy="400" r="4.079" fill="#f9004d" stroke="none" opacity=".35"/><circle cx="57.143" cy="400" r="4.079" fill="#f9004d" stroke="none"/><circle cx="114.286" cy="400" r="4.079" fill="#f9004d" stroke="none" opacity=".35"/><circle cx="171.429" cy="400" r="4.079" fill="#f9004d" stroke="none" opacity=".35"/><circle cx="228.571" cy="400" r="4.079" fill="#f9004d" stroke="none" opacity=".35"/><circle cx="285.714" cy="400" r="4.079" fill="#f9004d" stroke="none" opacity=".35"/><circle cx="342.857" cy="400" r="4.079" fill="#f9004d" stroke="none" opacity=".35"/><circle cx="400" cy="400" r="4.079" fill="#f9004d" stroke="none" opacity=".35"/><circle cx="457.143" cy="400" r="4.079" fill="#f9004d" stroke="none" opacity=".35"/><circle cx="514.286" cy="400" r="4.079" fill="#f9004d" stroke="none"/><circle cx="571.429" cy="400" r="4.079" fill="#f9004d" stroke="none" opacity=".35"/><circle cx="628.571" cy="400" r="4.079" fill="#f9004d" stroke="none" opacity=".35"/><circle cx="685.714" cy="400" r="4.079" fill="#f9004d" stroke="none"/><circle cx="742.857" cy="400" r="4.079" fill="#f9004d" stroke="none" opacity=".35"/><circle cx="800" cy="400" r="4.079" fill="#f9004d" stroke="none" opacity=".35"/><circle cx="0" cy="480" r="4.079" fill="#f9004d" stroke="none" opacity=".35"/><circle cx="57.143" cy="480" r="4.079" fill="#f9004d" stroke="none" opacity=".35"/><circle cx="114.286" cy="480" r="4.079" fill="#f9004d" stroke="none" opacity=".35"/><circle cx="171.429" cy="480" r="4.079" fill="#f9004d" stroke="none" opacity=".35"/><circle cx="228.571" cy="480" r="4.079" fill="#f9004d" stroke="none" opacity=".35"/><circle cx="285.714" cy="480" r="4.079" fill="#f9004d" stroke="none" opacity=".35"/><circle cx="342.857" cy="480" r="4.079" fill="#f9004d" stroke="none"/><circle cx="400" cy="480" r="4.079" fill="#f9004d" stroke="none" opacity=".35"/><circle cx="457.143" cy="480" r="4.079" fill="#f9004d" stroke="none" opacity=".35"/><circle cx="514.286" cy="480" r="4.079" fill="#f9004d" stroke="none" opacity=".35"/><circle cx="571.429" cy="480" r="4.079" fill="#f9004d" stroke="none" opacity=".35"/><circle cx="628.571" cy="480" r="4.079" fill="#f9004d" stroke="none"/><circle cx="685.714" cy="480" r="4.079" fill="#f9004d" stroke="none" opacity=".35"/><circle cx="742.857" cy="480" r="4.079" fill="#f9004d" stroke="none" opacity=".35"/><circle cx="800" cy="480" r="4.079" fill="#f9004d" stroke="none" opacity=".35"/><circle cx="0" cy="560" r="4.079" fill="#f9004d" stroke="none" opacity=".35"/><circle cx="57.143" cy="560" r="4.079" fill="#f9004d" stroke="none" opacity=".35"/><circle cx="114.286" cy="560" r="4.079" fill="#f9004d" stroke="none" opacity=".35"/><circle cx="171.429" cy="560" r="4.079" fill="#f9004d" stroke="none" opacity=".35"/><circle cx="228.571" cy="560" r="4.079" fill="#f9004d" stroke="none" opacity=".35"/><circle cx="285.714" cy="560" r="4.079" fill="#f9004d" stroke="none" opacity=".35"/><circle cx="342.857" cy="560" r="4.079" fill="#f9004d" stroke="none"/><circle cx="400" cy="560" r="4.079" fill="#f9004d" stroke="none" opacity=".35"/><circle cx="457.143" cy="560" r="4.079" fill="#f9004d" stroke="none" opacity=".35"/><circle cx="514.286" cy="560" r="4.079" fill="#f9004d" stroke="none"/><circle cx="571.429" cy="560" r="4.079" fill="#f9004d" stroke="none" opacity=".35"/><circle cx="628.571" cy="560" r="4.079" fill="#f9004d" stroke="none" opacity=".35"/><circle cx="685.714" cy="560" r="4.079" fill="#f9004d" stroke="none"/><circle cx="742.857" cy="560" r="4.079" fill="#f9004d" stroke="none" opacity=".35"/><circle cx="800" cy="560" r="4.079" fill="#f9004d" stroke="none" opacity=".35"/><circle cx="0" cy="640" r="4.079" fill="#f9004d" stroke="none" opacity=".35"/><circle cx="57.143" cy="640" r="4.079" fill="#f9004d" stroke="none" opacity=".35"/><circle cx="114.286" cy="640" r="4.079" fill="#f9004d" stroke="none"/><circle cx="171.429" cy="640" r="4.079" fill="#f9004d" stroke="none" opacity=".35"/><circle cx="228.571" cy="640" r="4.079" fill="#f9004d" stroke="none" opacity=".35"/><circle cx="285.714" cy="640" r="4.079" fill="#f9004d" stroke="none" opacity=".35"/><circle cx="342.857" cy="640" r="4.079" fill="#f9004d" stroke="none" opacity=".35"/><circle cx="400" cy="640" r="4.079" fill="#f9004d" stroke="none"/><circle cx="457.143" cy="640" r="4.079" fill="#f9004d" stroke="none"/><circle cx="514.286" cy="640" r="4.079" fill="#f9004d" stroke="none" opacity=".35"/><circle cx="571.429" cy="640" r="4.079" fill="#f9004d" stroke="none"/><circle cx="628.571" cy="640" r="4.079" fill="#f9004d" stroke="none" opacity=".35"/><circle cx="685.714" cy="640" r="4.079" fill="#f9004d" stroke="none"/><circle cx="742.857" cy="640" r="4.079" fill="#f9004d" stroke="none"/><circle cx="800" cy="640" r="4.079" fill="#f9004d" stroke="none" opacity=".35"/><circle cx="0" cy="720" r="4.079" fill="#f9004d" stroke="none" opacity=".35"/><circle cx="57.143" cy="720" r="4.079" fill="#f9004d" stroke="none" opacity=".35"/><circle cx="114.286" cy="720" r="4.079" fill="#f9004d" stroke="none" opacity=".35"/><circle cx="171.429" cy="720" r="4.079" fill="#f9004d" stroke="none" opacity=".35"/><circle cx="228.571" cy="720" r="4.079" fill="#f9004d" stroke="none" opacity=".35"/><circle cx="285.714" cy="720" r="4.079" fill="#f9004d" stroke="none" opacity=".35"/><circle cx="342.857" cy="720" r="4.079" fill="#f9004d" stroke="none"/><circle cx="400" cy="720" r="4.079" fill="#f9004d" stroke="none" opacity=".35"/><circle cx="457.143" cy="720" r="4.079" fill="#f9004d" stroke="none"/><circle cx="514.286" cy="720" r="4.079" fill="#f9004d" stroke="none" opacity=".35"/><circle cx="571.429" cy="720" r="4.079" fill="#f9004d" stroke="none" opacity=".35"/><circle cx="628.571" cy="720" r="4.079" fill="#f9004d" stroke="none"/><circle cx="685.714" cy="720" r="4.079" fill="#f9004d" stroke="none" opacity=".35"/><circle cx="742.857" cy="720" r="4.079" fill="#f9004d" stroke="none" opacity=".35"/><circle cx="800" cy="720" r="4.079" fill="#f9004d" stroke="none" opacity=".35"/><circle cx="0" cy="800" r="4.079" fill="#f9004d" stroke="none" opacity=".35"/><circle cx="57.143" cy="800" r="4.079" fill="#f9004d" stroke="none" opacity=".35"/><circle cx="114.286" cy="800" r="4.079" fill="#f9004d" stroke="none" opacity=".35"/><circle cx="171.429" cy="800" r="4.079" fill="#f9004d" stroke="none" opacity=".35"/><circle cx="228.571" cy="800" r="4.079" fill="#f9004d" stroke="none" opacity=".35"/><circle cx="285.714" cy="800" r="4.079" fill="#f9004d" stroke="none" opacity=".35"/><circle cx="342.857" cy="800" r="4.079" fill="#f9004d" stroke="none" opacity=".35"/><circle cx="400" cy="800" r="4.079" fill="#f9004d" stroke="none" opacity=".35"/><circle cx="457.143" cy="800" r="4.079" fill="#f9004d" stroke="none" opacity=".35"/><circle cx="514.286" cy="800" r="4.079" fill="#f9004d" stroke="none" opacity=".35"/><circle cx="571.429" cy="800" r="4.079" fill="#f9004d" stroke="none" opacity=".35"/><circle cx="628.571" cy="800" r="4.079" fill="#f9004d" stroke="none" opacity=".35"/><circle cx="685.714" cy="800" r="4.079" fill="#f9004d" stroke="none" opacity=".35"/><circle cx="742.857" cy="800" r="4.079" fill="#f9004d" stroke="none" opacity=".35"/><circle cx="800" cy="800" r="4.079" fill="#f9004d" stroke="none" opacity=".35"/></g></svg>