<svg xmlns="http://www.w3.org/2000/svg" xmlns:svgjs="http://svgjs.dev/svgjs" xmlns:xlink="http://www.w3.org/1999/xlink" width="800" height="800" opacity=".77" version="1.1" viewBox="0 0 800 800"><g fill="none" stroke="hsla(232, 85%, 70%, 1)" stroke-width="1.5"><circle cx="0" cy="0" r="4.079" fill="hsla(232, 85%, 70%, 1)" stroke="none"/><circle cx="44.444" cy="0" r="4.079" fill="hsla(272, 100%, 90%, 1)" stroke="none"/><circle cx="88.889" cy="0" r="4.079" fill="hsla(232, 85%, 70%, 1)" stroke="none"/><circle cx="133.333" cy="0" r="4.079" fill="hsla(272, 100%, 90%, 1)" stroke="none"/><circle cx="177.778" cy="0" r="4.079" fill="hsla(232, 85%, 70%, 1)" stroke="none"/><circle cx="222.222" cy="0" r="4.079" fill="hsla(272, 100%, 90%, 1)" stroke="none"/><circle cx="266.667" cy="0" r="4.079" fill="hsla(232, 85%, 70%, 1)" stroke="none"/><circle cx="311.111" cy="0" r="4.079" fill="hsla(272, 100%, 90%, 1)" stroke="none"/><circle cx="355.556" cy="0" r="4.079" fill="hsla(232, 85%, 70%, 1)" stroke="none"/><circle cx="400" cy="0" r="4.079" fill="hsla(272, 100%, 90%, 1)" stroke="none"/><circle cx="444.444" cy="0" r="4.079" fill="hsla(232, 85%, 70%, 1)" stroke="none"/><circle cx="488.889" cy="0" r="4.079" fill="hsla(272, 100%, 90%, 1)" stroke="none"/><circle cx="533.333" cy="0" r="4.079" fill="hsla(232, 85%, 70%, 1)" stroke="none"/><circle cx="577.778" cy="0" r="4.079" fill="hsla(272, 100%, 90%, 1)" stroke="none"/><circle cx="622.222" cy="0" r="4.079" fill="hsla(232, 85%, 70%, 1)" stroke="none"/><circle cx="666.667" cy="0" r="4.079" fill="hsla(272, 100%, 90%, 1)" stroke="none"/><circle cx="711.111" cy="0" r="4.079" fill="hsla(232, 85%, 70%, 1)" stroke="none"/><circle cx="755.556" cy="0" r="4.079" fill="hsla(272, 100%, 90%, 1)" stroke="none"/><circle cx="800" cy="0" r="4.079" fill="hsla(232, 85%, 70%, 1)" stroke="none"/><circle cx="0" cy="44.444" r="4.079" fill="hsla(272, 100%, 90%, 1)" stroke="none"/><circle cx="44.444" cy="44.444" r="4.079" fill="hsla(232, 85%, 70%, 1)" stroke="none"/><circle cx="88.889" cy="44.444" r="4.079" fill="hsla(272, 100%, 90%, 1)" stroke="none"/><circle cx="133.333" cy="44.444" r="4.079" fill="hsla(232, 85%, 70%, 1)" stroke="none"/><circle cx="177.778" cy="44.444" r="4.079" fill="hsla(272, 100%, 90%, 1)" stroke="none"/><circle cx="222.222" cy="44.444" r="4.079" fill="hsla(232, 85%, 70%, 1)" stroke="none"/><circle cx="266.667" cy="44.444" r="4.079" fill="hsla(272, 100%, 90%, 1)" stroke="none"/><circle cx="311.111" cy="44.444" r="4.079" fill="hsla(232, 85%, 70%, 1)" stroke="none"/><circle cx="355.556" cy="44.444" r="4.079" fill="hsla(272, 100%, 90%, 1)" stroke="none"/><circle cx="400" cy="44.444" r="4.079" fill="hsla(232, 85%, 70%, 1)" stroke="none"/><circle cx="444.444" cy="44.444" r="4.079" fill="hsla(272, 100%, 90%, 1)" stroke="none"/><circle cx="488.889" cy="44.444" r="4.079" fill="hsla(232, 85%, 70%, 1)" stroke="none"/><circle cx="533.333" cy="44.444" r="4.079" fill="hsla(272, 100%, 90%, 1)" stroke="none"/><circle cx="577.778" cy="44.444" r="4.079" fill="hsla(232, 85%, 70%, 1)" stroke="none"/><circle cx="622.222" cy="44.444" r="4.079" fill="hsla(272, 100%, 90%, 1)" stroke="none"/><circle cx="666.667" cy="44.444" r="4.079" fill="hsla(232, 85%, 70%, 1)" stroke="none"/><circle cx="711.111" cy="44.444" r="4.079" fill="hsla(272, 100%, 90%, 1)" stroke="none"/><circle cx="755.556" cy="44.444" r="4.079" fill="hsla(232, 85%, 70%, 1)" stroke="none"/><circle cx="800" cy="44.444" r="4.079" fill="hsla(272, 100%, 90%, 1)" stroke="none"/><circle cx="0" cy="88.889" r="4.079" fill="hsla(232, 85%, 70%, 1)" stroke="none"/><circle cx="44.444" cy="88.889" r="4.079" fill="hsla(272, 100%, 90%, 1)" stroke="none"/><circle cx="88.889" cy="88.889" r="4.079" fill="hsla(232, 85%, 70%, 1)" stroke="none"/><circle cx="133.333" cy="88.889" r="4.079" fill="hsla(272, 100%, 90%, 1)" stroke="none"/><circle cx="177.778" cy="88.889" r="4.079" fill="hsla(232, 85%, 70%, 1)" stroke="none"/><circle cx="222.222" cy="88.889" r="4.079" fill="hsla(272, 100%, 90%, 1)" stroke="none"/><circle cx="266.667" cy="88.889" r="4.079" fill="hsla(232, 85%, 70%, 1)" stroke="none"/><circle cx="311.111" cy="88.889" r="4.079" fill="hsla(272, 100%, 90%, 1)" stroke="none"/><circle cx="355.556" cy="88.889" r="4.079" fill="hsla(232, 85%, 70%, 1)" stroke="none"/><circle cx="400" cy="88.889" r="4.079" fill="hsla(272, 100%, 90%, 1)" stroke="none"/><circle cx="444.444" cy="88.889" r="4.079" fill="hsla(232, 85%, 70%, 1)" stroke="none"/><circle cx="488.889" cy="88.889" r="4.079" fill="hsla(272, 100%, 90%, 1)" stroke="none"/><circle cx="533.333" cy="88.889" r="4.079" fill="hsla(232, 85%, 70%, 1)" stroke="none"/><circle cx="577.778" cy="88.889" r="4.079" fill="hsla(272, 100%, 90%, 1)" stroke="none"/><circle cx="622.222" cy="88.889" r="4.079" fill="hsla(232, 85%, 70%, 1)" stroke="none"/><circle cx="666.667" cy="88.889" r="4.079" fill="hsla(272, 100%, 90%, 1)" stroke="none"/><circle cx="711.111" cy="88.889" r="4.079" fill="hsla(232, 85%, 70%, 1)" stroke="none"/><circle cx="755.556" cy="88.889" r="4.079" fill="hsla(272, 100%, 90%, 1)" stroke="none"/><circle cx="800" cy="88.889" r="4.079" fill="hsla(232, 85%, 70%, 1)" stroke="none"/><circle cx="0" cy="133.333" r="4.079" fill="hsla(272, 100%, 90%, 1)" stroke="none"/><circle cx="44.444" cy="133.333" r="4.079" fill="hsla(232, 85%, 70%, 1)" stroke="none"/><circle cx="88.889" cy="133.333" r="4.079" fill="hsla(272, 100%, 90%, 1)" stroke="none"/><circle cx="133.333" cy="133.333" r="4.079" fill="hsla(232, 85%, 70%, 1)" stroke="none"/><circle cx="177.778" cy="133.333" r="4.079" fill="hsla(272, 100%, 90%, 1)" stroke="none"/><circle cx="222.222" cy="133.333" r="4.079" fill="hsla(232, 85%, 70%, 1)" stroke="none"/><circle cx="266.667" cy="133.333" r="4.079" fill="hsla(272, 100%, 90%, 1)" stroke="none"/><circle cx="311.111" cy="133.333" r="4.079" fill="hsla(232, 85%, 70%, 1)" stroke="none"/><circle cx="355.556" cy="133.333" r="4.079" fill="hsla(272, 100%, 90%, 1)" stroke="none"/><circle cx="400" cy="133.333" r="4.079" fill="hsla(232, 85%, 70%, 1)" stroke="none"/><circle cx="444.444" cy="133.333" r="4.079" fill="hsla(272, 100%, 90%, 1)" stroke="none"/><circle cx="488.889" cy="133.333" r="4.079" fill="hsla(232, 85%, 70%, 1)" stroke="none"/><circle cx="533.333" cy="133.333" r="4.079" fill="hsla(272, 100%, 90%, 1)" stroke="none"/><circle cx="577.778" cy="133.333" r="4.079" fill="hsla(232, 85%, 70%, 1)" stroke="none"/><circle cx="622.222" cy="133.333" r="4.079" fill="hsla(272, 100%, 90%, 1)" stroke="none"/><circle cx="666.667" cy="133.333" r="4.079" fill="hsla(232, 85%, 70%, 1)" stroke="none"/><circle cx="711.111" cy="133.333" r="4.079" fill="hsla(272, 100%, 90%, 1)" stroke="none"/><circle cx="755.556" cy="133.333" r="4.079" fill="hsla(232, 85%, 70%, 1)" stroke="none"/><circle cx="800" cy="133.333" r="4.079" fill="hsla(272, 100%, 90%, 1)" stroke="none"/><circle cx="0" cy="177.778" r="4.079" fill="hsla(232, 85%, 70%, 1)" stroke="none"/><circle cx="44.444" cy="177.778" r="4.079" fill="hsla(272, 100%, 90%, 1)" stroke="none"/><circle cx="88.889" cy="177.778" r="4.079" fill="hsla(232, 85%, 70%, 1)" stroke="none"/><circle cx="133.333" cy="177.778" r="4.079" fill="hsla(272, 100%, 90%, 1)" stroke="none"/><circle cx="177.778" cy="177.778" r="4.079" fill="hsla(232, 85%, 70%, 1)" stroke="none"/><circle cx="222.222" cy="177.778" r="4.079" fill="hsla(272, 100%, 90%, 1)" stroke="none"/><circle cx="266.667" cy="177.778" r="4.079" fill="hsla(232, 85%, 70%, 1)" stroke="none"/><circle cx="311.111" cy="177.778" r="4.079" fill="hsla(272, 100%, 90%, 1)" stroke="none"/><circle cx="355.556" cy="177.778" r="4.079" fill="hsla(232, 85%, 70%, 1)" stroke="none"/><circle cx="400" cy="177.778" r="4.079" fill="hsla(272, 100%, 90%, 1)" stroke="none"/><circle cx="444.444" cy="177.778" r="4.079" fill="hsla(232, 85%, 70%, 1)" stroke="none"/><circle cx="488.889" cy="177.778" r="4.079" fill="hsla(272, 100%, 90%, 1)" stroke="none"/><circle cx="533.333" cy="177.778" r="4.079" fill="hsla(232, 85%, 70%, 1)" stroke="none"/><circle cx="577.778" cy="177.778" r="4.079" fill="hsla(272, 100%, 90%, 1)" stroke="none"/><circle cx="622.222" cy="177.778" r="4.079" fill="hsla(232, 85%, 70%, 1)" stroke="none"/><circle cx="666.667" cy="177.778" r="4.079" fill="hsla(272, 100%, 90%, 1)" stroke="none"/><circle cx="711.111" cy="177.778" r="4.079" fill="hsla(232, 85%, 70%, 1)" stroke="none"/><circle cx="755.556" cy="177.778" r="4.079" fill="hsla(272, 100%, 90%, 1)" stroke="none"/><circle cx="800" cy="177.778" r="4.079" fill="hsla(232, 85%, 70%, 1)" stroke="none"/><circle cx="0" cy="222.222" r="4.079" fill="hsla(272, 100%, 90%, 1)" stroke="none"/><circle cx="44.444" cy="222.222" r="4.079" fill="hsla(232, 85%, 70%, 1)" stroke="none"/><circle cx="88.889" cy="222.222" r="4.079" fill="hsla(272, 100%, 90%, 1)" stroke="none"/><circle cx="133.333" cy="222.222" r="4.079" fill="hsla(232, 85%, 70%, 1)" stroke="none"/><circle cx="177.778" cy="222.222" r="4.079" fill="hsla(272, 100%, 90%, 1)" stroke="none"/><circle cx="222.222" cy="222.222" r="4.079" fill="hsla(232, 85%, 70%, 1)" stroke="none"/><circle cx="266.667" cy="222.222" r="4.079" fill="hsla(272, 100%, 90%, 1)" stroke="none"/><circle cx="311.111" cy="222.222" r="4.079" fill="hsla(232, 85%, 70%, 1)" stroke="none"/><circle cx="355.556" cy="222.222" r="4.079" fill="hsla(272, 100%, 90%, 1)" stroke="none"/><circle cx="400" cy="222.222" r="4.079" fill="hsla(232, 85%, 70%, 1)" stroke="none"/><circle cx="444.444" cy="222.222" r="4.079" fill="hsla(272, 100%, 90%, 1)" stroke="none"/><circle cx="488.889" cy="222.222" r="4.079" fill="hsla(232, 85%, 70%, 1)" stroke="none"/><circle cx="533.333" cy="222.222" r="4.079" fill="hsla(272, 100%, 90%, 1)" stroke="none"/><circle cx="577.778" cy="222.222" r="4.079" fill="hsla(232, 85%, 70%, 1)" stroke="none"/><circle cx="622.222" cy="222.222" r="4.079" fill="hsla(272, 100%, 90%, 1)" stroke="none"/><circle cx="666.667" cy="222.222" r="4.079" fill="hsla(232, 85%, 70%, 1)" stroke="none"/><circle cx="711.111" cy="222.222" r="4.079" fill="hsla(272, 100%, 90%, 1)" stroke="none"/><circle cx="755.556" cy="222.222" r="4.079" fill="hsla(232, 85%, 70%, 1)" stroke="none"/><circle cx="800" cy="222.222" r="4.079" fill="hsla(272, 100%, 90%, 1)" stroke="none"/><circle cx="0" cy="266.667" r="4.079" fill="hsla(232, 85%, 70%, 1)" stroke="none"/><circle cx="44.444" cy="266.667" r="4.079" fill="hsla(272, 100%, 90%, 1)" stroke="none"/><circle cx="88.889" cy="266.667" r="4.079" fill="hsla(232, 85%, 70%, 1)" stroke="none"/><circle cx="133.333" cy="266.667" r="4.079" fill="hsla(272, 100%, 90%, 1)" stroke="none"/><circle cx="177.778" cy="266.667" r="4.079" fill="hsla(232, 85%, 70%, 1)" stroke="none"/><circle cx="222.222" cy="266.667" r="4.079" fill="hsla(272, 100%, 90%, 1)" stroke="none"/><circle cx="266.667" cy="266.667" r="4.079" fill="hsla(232, 85%, 70%, 1)" stroke="none"/><circle cx="311.111" cy="266.667" r="4.079" fill="hsla(272, 100%, 90%, 1)" stroke="none"/><circle cx="355.556" cy="266.667" r="4.079" fill="hsla(232, 85%, 70%, 1)" stroke="none"/><circle cx="400" cy="266.667" r="4.079" fill="hsla(272, 100%, 90%, 1)" stroke="none"/><circle cx="444.444" cy="266.667" r="4.079" fill="hsla(232, 85%, 70%, 1)" stroke="none"/><circle cx="488.889" cy="266.667" r="4.079" fill="hsla(272, 100%, 90%, 1)" stroke="none"/><circle cx="533.333" cy="266.667" r="4.079" fill="hsla(232, 85%, 70%, 1)" stroke="none"/><circle cx="577.778" cy="266.667" r="4.079" fill="hsla(272, 100%, 90%, 1)" stroke="none"/><circle cx="622.222" cy="266.667" r="4.079" fill="hsla(232, 85%, 70%, 1)" stroke="none"/><circle cx="666.667" cy="266.667" r="4.079" fill="hsla(272, 100%, 90%, 1)" stroke="none"/><circle cx="711.111" cy="266.667" r="4.079" fill="hsla(232, 85%, 70%, 1)" stroke="none"/><circle cx="755.556" cy="266.667" r="4.079" fill="hsla(272, 100%, 90%, 1)" stroke="none"/><circle cx="800" cy="266.667" r="4.079" fill="hsla(232, 85%, 70%, 1)" stroke="none"/><circle cx="0" cy="311.111" r="4.079" fill="hsla(272, 100%, 90%, 1)" stroke="none"/><circle cx="44.444" cy="311.111" r="4.079" fill="hsla(232, 85%, 70%, 1)" stroke="none"/><circle cx="88.889" cy="311.111" r="4.079" fill="hsla(272, 100%, 90%, 1)" stroke="none"/><circle cx="133.333" cy="311.111" r="4.079" fill="hsla(232, 85%, 70%, 1)" stroke="none"/><circle cx="177.778" cy="311.111" r="4.079" fill="hsla(272, 100%, 90%, 1)" stroke="none"/><circle cx="222.222" cy="311.111" r="4.079" fill="hsla(232, 85%, 70%, 1)" stroke="none"/><circle cx="266.667" cy="311.111" r="4.079" fill="hsla(272, 100%, 90%, 1)" stroke="none"/><circle cx="311.111" cy="311.111" r="4.079" fill="hsla(232, 85%, 70%, 1)" stroke="none"/><circle cx="355.556" cy="311.111" r="4.079" fill="hsla(272, 100%, 90%, 1)" stroke="none"/><circle cx="400" cy="311.111" r="4.079" fill="hsla(232, 85%, 70%, 1)" stroke="none"/><circle cx="444.444" cy="311.111" r="4.079" fill="hsla(272, 100%, 90%, 1)" stroke="none"/><circle cx="488.889" cy="311.111" r="4.079" fill="hsla(232, 85%, 70%, 1)" stroke="none"/><circle cx="533.333" cy="311.111" r="4.079" fill="hsla(272, 100%, 90%, 1)" stroke="none"/><circle cx="577.778" cy="311.111" r="4.079" fill="hsla(232, 85%, 70%, 1)" stroke="none"/><circle cx="622.222" cy="311.111" r="4.079" fill="hsla(272, 100%, 90%, 1)" stroke="none"/><circle cx="666.667" cy="311.111" r="4.079" fill="hsla(232, 85%, 70%, 1)" stroke="none"/><circle cx="711.111" cy="311.111" r="4.079" fill="hsla(272, 100%, 90%, 1)" stroke="none"/><circle cx="755.556" cy="311.111" r="4.079" fill="hsla(232, 85%, 70%, 1)" stroke="none"/><circle cx="800" cy="311.111" r="4.079" fill="hsla(272, 100%, 90%, 1)" stroke="none"/><circle cx="0" cy="355.556" r="4.079" fill="hsla(232, 85%, 70%, 1)" stroke="none"/><circle cx="44.444" cy="355.556" r="4.079" fill="hsla(272, 100%, 90%, 1)" stroke="none"/><circle cx="88.889" cy="355.556" r="4.079" fill="hsla(232, 85%, 70%, 1)" stroke="none"/><circle cx="133.333" cy="355.556" r="4.079" fill="hsla(272, 100%, 90%, 1)" stroke="none"/><circle cx="177.778" cy="355.556" r="4.079" fill="hsla(232, 85%, 70%, 1)" stroke="none"/><circle cx="222.222" cy="355.556" r="4.079" fill="hsla(272, 100%, 90%, 1)" stroke="none"/><circle cx="266.667" cy="355.556" r="4.079" fill="hsla(232, 85%, 70%, 1)" stroke="none"/><circle cx="311.111" cy="355.556" r="4.079" fill="hsla(272, 100%, 90%, 1)" stroke="none"/><circle cx="355.556" cy="355.556" r="4.079" fill="hsla(232, 85%, 70%, 1)" stroke="none"/><circle cx="400" cy="355.556" r="4.079" fill="hsla(272, 100%, 90%, 1)" stroke="none"/><circle cx="444.444" cy="355.556" r="4.079" fill="hsla(232, 85%, 70%, 1)" stroke="none"/><circle cx="488.889" cy="355.556" r="4.079" fill="hsla(272, 100%, 90%, 1)" stroke="none"/><circle cx="533.333" cy="355.556" r="4.079" fill="hsla(232, 85%, 70%, 1)" stroke="none"/><circle cx="577.778" cy="355.556" r="4.079" fill="hsla(272, 100%, 90%, 1)" stroke="none"/><circle cx="622.222" cy="355.556" r="4.079" fill="hsla(232, 85%, 70%, 1)" stroke="none"/><circle cx="666.667" cy="355.556" r="4.079" fill="hsla(272, 100%, 90%, 1)" stroke="none"/><circle cx="711.111" cy="355.556" r="4.079" fill="hsla(232, 85%, 70%, 1)" stroke="none"/><circle cx="755.556" cy="355.556" r="4.079" fill="hsla(272, 100%, 90%, 1)" stroke="none"/><circle cx="800" cy="355.556" r="4.079" fill="hsla(232, 85%, 70%, 1)" stroke="none"/><circle cx="0" cy="400" r="4.079" fill="hsla(272, 100%, 90%, 1)" stroke="none"/><circle cx="44.444" cy="400" r="4.079" fill="hsla(232, 85%, 70%, 1)" stroke="none"/><circle cx="88.889" cy="400" r="4.079" fill="hsla(272, 100%, 90%, 1)" stroke="none"/><circle cx="133.333" cy="400" r="4.079" fill="hsla(232, 85%, 70%, 1)" stroke="none"/><circle cx="177.778" cy="400" r="4.079" fill="hsla(272, 100%, 90%, 1)" stroke="none"/><circle cx="222.222" cy="400" r="4.079" fill="hsla(232, 85%, 70%, 1)" stroke="none"/><circle cx="266.667" cy="400" r="4.079" fill="hsla(272, 100%, 90%, 1)" stroke="none"/><circle cx="311.111" cy="400" r="4.079" fill="hsla(232, 85%, 70%, 1)" stroke="none"/><circle cx="355.556" cy="400" r="4.079" fill="hsla(272, 100%, 90%, 1)" stroke="none"/><circle cx="400" cy="400" r="4.079" fill="hsla(232, 85%, 70%, 1)" stroke="none"/><circle cx="444.444" cy="400" r="4.079" fill="hsla(272, 100%, 90%, 1)" stroke="none"/><circle cx="488.889" cy="400" r="4.079" fill="hsla(232, 85%, 70%, 1)" stroke="none"/><circle cx="533.333" cy="400" r="4.079" fill="hsla(272, 100%, 90%, 1)" stroke="none"/><circle cx="577.778" cy="400" r="4.079" fill="hsla(232, 85%, 70%, 1)" stroke="none"/><circle cx="622.222" cy="400" r="4.079" fill="hsla(272, 100%, 90%, 1)" stroke="none"/><circle cx="666.667" cy="400" r="4.079" fill="hsla(232, 85%, 70%, 1)" stroke="none"/><circle cx="711.111" cy="400" r="4.079" fill="hsla(272, 100%, 90%, 1)" stroke="none"/><circle cx="755.556" cy="400" r="4.079" fill="hsla(232, 85%, 70%, 1)" stroke="none"/><circle cx="800" cy="400" r="4.079" fill="hsla(272, 100%, 90%, 1)" stroke="none"/><circle cx="0" cy="444.444" r="4.079" fill="hsla(232, 85%, 70%, 1)" stroke="none"/><circle cx="44.444" cy="444.444" r="4.079" fill="hsla(272, 100%, 90%, 1)" stroke="none"/><circle cx="88.889" cy="444.444" r="4.079" fill="hsla(232, 85%, 70%, 1)" stroke="none"/><circle cx="133.333" cy="444.444" r="4.079" fill="hsla(272, 100%, 90%, 1)" stroke="none"/><circle cx="177.778" cy="444.444" r="4.079" fill="hsla(232, 85%, 70%, 1)" stroke="none"/><circle cx="222.222" cy="444.444" r="4.079" fill="hsla(272, 100%, 90%, 1)" stroke="none"/><circle cx="266.667" cy="444.444" r="4.079" fill="hsla(232, 85%, 70%, 1)" stroke="none"/><circle cx="311.111" cy="444.444" r="4.079" fill="hsla(272, 100%, 90%, 1)" stroke="none"/><circle cx="355.556" cy="444.444" r="4.079" fill="hsla(232, 85%, 70%, 1)" stroke="none"/><circle cx="400" cy="444.444" r="4.079" fill="hsla(272, 100%, 90%, 1)" stroke="none"/><circle cx="444.444" cy="444.444" r="4.079" fill="hsla(232, 85%, 70%, 1)" stroke="none"/><circle cx="488.889" cy="444.444" r="4.079" fill="hsla(272, 100%, 90%, 1)" stroke="none"/><circle cx="533.333" cy="444.444" r="4.079" fill="hsla(232, 85%, 70%, 1)" stroke="none"/><circle cx="577.778" cy="444.444" r="4.079" fill="hsla(272, 100%, 90%, 1)" stroke="none"/><circle cx="622.222" cy="444.444" r="4.079" fill="hsla(232, 85%, 70%, 1)" stroke="none"/><circle cx="666.667" cy="444.444" r="4.079" fill="hsla(272, 100%, 90%, 1)" stroke="none"/><circle cx="711.111" cy="444.444" r="4.079" fill="hsla(232, 85%, 70%, 1)" stroke="none"/><circle cx="755.556" cy="444.444" r="4.079" fill="hsla(272, 100%, 90%, 1)" stroke="none"/><circle cx="800" cy="444.444" r="4.079" fill="hsla(232, 85%, 70%, 1)" stroke="none"/><circle cx="0" cy="488.889" r="4.079" fill="hsla(272, 100%, 90%, 1)" stroke="none"/><circle cx="44.444" cy="488.889" r="4.079" fill="hsla(232, 85%, 70%, 1)" stroke="none"/><circle cx="88.889" cy="488.889" r="4.079" fill="hsla(272, 100%, 90%, 1)" stroke="none"/><circle cx="133.333" cy="488.889" r="4.079" fill="hsla(232, 85%, 70%, 1)" stroke="none"/><circle cx="177.778" cy="488.889" r="4.079" fill="hsla(272, 100%, 90%, 1)" stroke="none"/><circle cx="222.222" cy="488.889" r="4.079" fill="hsla(232, 85%, 70%, 1)" stroke="none"/><circle cx="266.667" cy="488.889" r="4.079" fill="hsla(272, 100%, 90%, 1)" stroke="none"/><circle cx="311.111" cy="488.889" r="4.079" fill="hsla(232, 85%, 70%, 1)" stroke="none"/><circle cx="355.556" cy="488.889" r="4.079" fill="hsla(272, 100%, 90%, 1)" stroke="none"/><circle cx="400" cy="488.889" r="4.079" fill="hsla(232, 85%, 70%, 1)" stroke="none"/><circle cx="444.444" cy="488.889" r="4.079" fill="hsla(272, 100%, 90%, 1)" stroke="none"/><circle cx="488.889" cy="488.889" r="4.079" fill="hsla(232, 85%, 70%, 1)" stroke="none"/><circle cx="533.333" cy="488.889" r="4.079" fill="hsla(272, 100%, 90%, 1)" stroke="none"/><circle cx="577.778" cy="488.889" r="4.079" fill="hsla(232, 85%, 70%, 1)" stroke="none"/><circle cx="622.222" cy="488.889" r="4.079" fill="hsla(272, 100%, 90%, 1)" stroke="none"/><circle cx="666.667" cy="488.889" r="4.079" fill="hsla(232, 85%, 70%, 1)" stroke="none"/><circle cx="711.111" cy="488.889" r="4.079" fill="hsla(272, 100%, 90%, 1)" stroke="none"/><circle cx="755.556" cy="488.889" r="4.079" fill="hsla(232, 85%, 70%, 1)" stroke="none"/><circle cx="800" cy="488.889" r="4.079" fill="hsla(272, 100%, 90%, 1)" stroke="none"/><circle cx="0" cy="533.333" r="4.079" fill="hsla(232, 85%, 70%, 1)" stroke="none"/><circle cx="44.444" cy="533.333" r="4.079" fill="hsla(272, 100%, 90%, 1)" stroke="none"/><circle cx="88.889" cy="533.333" r="4.079" fill="hsla(232, 85%, 70%, 1)" stroke="none"/><circle cx="133.333" cy="533.333" r="4.079" fill="hsla(272, 100%, 90%, 1)" stroke="none"/><circle cx="177.778" cy="533.333" r="4.079" fill="hsla(232, 85%, 70%, 1)" stroke="none"/><circle cx="222.222" cy="533.333" r="4.079" fill="hsla(272, 100%, 90%, 1)" stroke="none"/><circle cx="266.667" cy="533.333" r="4.079" fill="hsla(232, 85%, 70%, 1)" stroke="none"/><circle cx="311.111" cy="533.333" r="4.079" fill="hsla(272, 100%, 90%, 1)" stroke="none"/><circle cx="355.556" cy="533.333" r="4.079" fill="hsla(232, 85%, 70%, 1)" stroke="none"/><circle cx="400" cy="533.333" r="4.079" fill="hsla(272, 100%, 90%, 1)" stroke="none"/><circle cx="444.444" cy="533.333" r="4.079" fill="hsla(232, 85%, 70%, 1)" stroke="none"/><circle cx="488.889" cy="533.333" r="4.079" fill="hsla(272, 100%, 90%, 1)" stroke="none"/><circle cx="533.333" cy="533.333" r="4.079" fill="hsla(232, 85%, 70%, 1)" stroke="none"/><circle cx="577.778" cy="533.333" r="4.079" fill="hsla(272, 100%, 90%, 1)" stroke="none"/><circle cx="622.222" cy="533.333" r="4.079" fill="hsla(232, 85%, 70%, 1)" stroke="none"/><circle cx="666.667" cy="533.333" r="4.079" fill="hsla(272, 100%, 90%, 1)" stroke="none"/><circle cx="711.111" cy="533.333" r="4.079" fill="hsla(232, 85%, 70%, 1)" stroke="none"/><circle cx="755.556" cy="533.333" r="4.079" fill="hsla(272, 100%, 90%, 1)" stroke="none"/><circle cx="800" cy="533.333" r="4.079" fill="hsla(232, 85%, 70%, 1)" stroke="none"/><circle cx="0" cy="577.778" r="4.079" fill="hsla(272, 100%, 90%, 1)" stroke="none"/><circle cx="44.444" cy="577.778" r="4.079" fill="hsla(232, 85%, 70%, 1)" stroke="none"/><circle cx="88.889" cy="577.778" r="4.079" fill="hsla(272, 100%, 90%, 1)" stroke="none"/><circle cx="133.333" cy="577.778" r="4.079" fill="hsla(232, 85%, 70%, 1)" stroke="none"/><circle cx="177.778" cy="577.778" r="4.079" fill="hsla(272, 100%, 90%, 1)" stroke="none"/><circle cx="222.222" cy="577.778" r="4.079" fill="hsla(232, 85%, 70%, 1)" stroke="none"/><circle cx="266.667" cy="577.778" r="4.079" fill="hsla(272, 100%, 90%, 1)" stroke="none"/><circle cx="311.111" cy="577.778" r="4.079" fill="hsla(232, 85%, 70%, 1)" stroke="none"/><circle cx="355.556" cy="577.778" r="4.079" fill="hsla(272, 100%, 90%, 1)" stroke="none"/><circle cx="400" cy="577.778" r="4.079" fill="hsla(232, 85%, 70%, 1)" stroke="none"/><circle cx="444.444" cy="577.778" r="4.079" fill="hsla(272, 100%, 90%, 1)" stroke="none"/><circle cx="488.889" cy="577.778" r="4.079" fill="hsla(232, 85%, 70%, 1)" stroke="none"/><circle cx="533.333" cy="577.778" r="4.079" fill="hsla(272, 100%, 90%, 1)" stroke="none"/><circle cx="577.778" cy="577.778" r="4.079" fill="hsla(232, 85%, 70%, 1)" stroke="none"/><circle cx="622.222" cy="577.778" r="4.079" fill="hsla(272, 100%, 90%, 1)" stroke="none"/><circle cx="666.667" cy="577.778" r="4.079" fill="hsla(232, 85%, 70%, 1)" stroke="none"/><circle cx="711.111" cy="577.778" r="4.079" fill="hsla(272, 100%, 90%, 1)" stroke="none"/><circle cx="755.556" cy="577.778" r="4.079" fill="hsla(232, 85%, 70%, 1)" stroke="none"/><circle cx="800" cy="577.778" r="4.079" fill="hsla(272, 100%, 90%, 1)" stroke="none"/><circle cx="0" cy="622.222" r="4.079" fill="hsla(232, 85%, 70%, 1)" stroke="none"/><circle cx="44.444" cy="622.222" r="4.079" fill="hsla(272, 100%, 90%, 1)" stroke="none"/><circle cx="88.889" cy="622.222" r="4.079" fill="hsla(232, 85%, 70%, 1)" stroke="none"/><circle cx="133.333" cy="622.222" r="4.079" fill="hsla(272, 100%, 90%, 1)" stroke="none"/><circle cx="177.778" cy="622.222" r="4.079" fill="hsla(232, 85%, 70%, 1)" stroke="none"/><circle cx="222.222" cy="622.222" r="4.079" fill="hsla(272, 100%, 90%, 1)" stroke="none"/><circle cx="266.667" cy="622.222" r="4.079" fill="hsla(232, 85%, 70%, 1)" stroke="none"/><circle cx="311.111" cy="622.222" r="4.079" fill="hsla(272, 100%, 90%, 1)" stroke="none"/><circle cx="355.556" cy="622.222" r="4.079" fill="hsla(232, 85%, 70%, 1)" stroke="none"/><circle cx="400" cy="622.222" r="4.079" fill="hsla(272, 100%, 90%, 1)" stroke="none"/><circle cx="444.444" cy="622.222" r="4.079" fill="hsla(232, 85%, 70%, 1)" stroke="none"/><circle cx="488.889" cy="622.222" r="4.079" fill="hsla(272, 100%, 90%, 1)" stroke="none"/><circle cx="533.333" cy="622.222" r="4.079" fill="hsla(232, 85%, 70%, 1)" stroke="none"/><circle cx="577.778" cy="622.222" r="4.079" fill="hsla(272, 100%, 90%, 1)" stroke="none"/><circle cx="622.222" cy="622.222" r="4.079" fill="hsla(232, 85%, 70%, 1)" stroke="none"/><circle cx="666.667" cy="622.222" r="4.079" fill="hsla(272, 100%, 90%, 1)" stroke="none"/><circle cx="711.111" cy="622.222" r="4.079" fill="hsla(232, 85%, 70%, 1)" stroke="none"/><circle cx="755.556" cy="622.222" r="4.079" fill="hsla(272, 100%, 90%, 1)" stroke="none"/><circle cx="800" cy="622.222" r="4.079" fill="hsla(232, 85%, 70%, 1)" stroke="none"/><circle cx="0" cy="666.667" r="4.079" fill="hsla(272, 100%, 90%, 1)" stroke="none"/><circle cx="44.444" cy="666.667" r="4.079" fill="hsla(232, 85%, 70%, 1)" stroke="none"/><circle cx="88.889" cy="666.667" r="4.079" fill="hsla(272, 100%, 90%, 1)" stroke="none"/><circle cx="133.333" cy="666.667" r="4.079" fill="hsla(232, 85%, 70%, 1)" stroke="none"/><circle cx="177.778" cy="666.667" r="4.079" fill="hsla(272, 100%, 90%, 1)" stroke="none"/><circle cx="222.222" cy="666.667" r="4.079" fill="hsla(232, 85%, 70%, 1)" stroke="none"/><circle cx="266.667" cy="666.667" r="4.079" fill="hsla(272, 100%, 90%, 1)" stroke="none"/><circle cx="311.111" cy="666.667" r="4.079" fill="hsla(232, 85%, 70%, 1)" stroke="none"/><circle cx="355.556" cy="666.667" r="4.079" fill="hsla(272, 100%, 90%, 1)" stroke="none"/><circle cx="400" cy="666.667" r="4.079" fill="hsla(232, 85%, 70%, 1)" stroke="none"/><circle cx="444.444" cy="666.667" r="4.079" fill="hsla(272, 100%, 90%, 1)" stroke="none"/><circle cx="488.889" cy="666.667" r="4.079" fill="hsla(232, 85%, 70%, 1)" stroke="none"/><circle cx="533.333" cy="666.667" r="4.079" fill="hsla(272, 100%, 90%, 1)" stroke="none"/><circle cx="577.778" cy="666.667" r="4.079" fill="hsla(232, 85%, 70%, 1)" stroke="none"/><circle cx="622.222" cy="666.667" r="4.079" fill="hsla(272, 100%, 90%, 1)" stroke="none"/><circle cx="666.667" cy="666.667" r="4.079" fill="hsla(232, 85%, 70%, 1)" stroke="none"/><circle cx="711.111" cy="666.667" r="4.079" fill="hsla(272, 100%, 90%, 1)" stroke="none"/><circle cx="755.556" cy="666.667" r="4.079" fill="hsla(232, 85%, 70%, 1)" stroke="none"/><circle cx="800" cy="666.667" r="4.079" fill="hsla(272, 100%, 90%, 1)" stroke="none"/><circle cx="0" cy="711.111" r="4.079" fill="hsla(232, 85%, 70%, 1)" stroke="none"/><circle cx="44.444" cy="711.111" r="4.079" fill="hsla(272, 100%, 90%, 1)" stroke="none"/><circle cx="88.889" cy="711.111" r="4.079" fill="hsla(232, 85%, 70%, 1)" stroke="none"/><circle cx="133.333" cy="711.111" r="4.079" fill="hsla(272, 100%, 90%, 1)" stroke="none"/><circle cx="177.778" cy="711.111" r="4.079" fill="hsla(232, 85%, 70%, 1)" stroke="none"/><circle cx="222.222" cy="711.111" r="4.079" fill="hsla(272, 100%, 90%, 1)" stroke="none"/><circle cx="266.667" cy="711.111" r="4.079" fill="hsla(232, 85%, 70%, 1)" stroke="none"/><circle cx="311.111" cy="711.111" r="4.079" fill="hsla(272, 100%, 90%, 1)" stroke="none"/><circle cx="355.556" cy="711.111" r="4.079" fill="hsla(232, 85%, 70%, 1)" stroke="none"/><circle cx="400" cy="711.111" r="4.079" fill="hsla(272, 100%, 90%, 1)" stroke="none"/><circle cx="444.444" cy="711.111" r="4.079" fill="hsla(232, 85%, 70%, 1)" stroke="none"/><circle cx="488.889" cy="711.111" r="4.079" fill="hsla(272, 100%, 90%, 1)" stroke="none"/><circle cx="533.333" cy="711.111" r="4.079" fill="hsla(232, 85%, 70%, 1)" stroke="none"/><circle cx="577.778" cy="711.111" r="4.079" fill="hsla(272, 100%, 90%, 1)" stroke="none"/><circle cx="622.222" cy="711.111" r="4.079" fill="hsla(232, 85%, 70%, 1)" stroke="none"/><circle cx="666.667" cy="711.111" r="4.079" fill="hsla(272, 100%, 90%, 1)" stroke="none"/><circle cx="711.111" cy="711.111" r="4.079" fill="hsla(232, 85%, 70%, 1)" stroke="none"/><circle cx="755.556" cy="711.111" r="4.079" fill="hsla(272, 100%, 90%, 1)" stroke="none"/><circle cx="800" cy="711.111" r="4.079" fill="hsla(232, 85%, 70%, 1)" stroke="none"/><circle cx="0" cy="755.556" r="4.079" fill="hsla(272, 100%, 90%, 1)" stroke="none"/><circle cx="44.444" cy="755.556" r="4.079" fill="hsla(232, 85%, 70%, 1)" stroke="none"/><circle cx="88.889" cy="755.556" r="4.079" fill="hsla(272, 100%, 90%, 1)" stroke="none"/><circle cx="133.333" cy="755.556" r="4.079" fill="hsla(232, 85%, 70%, 1)" stroke="none"/><circle cx="177.778" cy="755.556" r="4.079" fill="hsla(272, 100%, 90%, 1)" stroke="none"/><circle cx="222.222" cy="755.556" r="4.079" fill="hsla(232, 85%, 70%, 1)" stroke="none"/><circle cx="266.667" cy="755.556" r="4.079" fill="hsla(272, 100%, 90%, 1)" stroke="none"/><circle cx="311.111" cy="755.556" r="4.079" fill="hsla(232, 85%, 70%, 1)" stroke="none"/><circle cx="355.556" cy="755.556" r="4.079" fill="hsla(272, 100%, 90%, 1)" stroke="none"/><circle cx="400" cy="755.556" r="4.079" fill="hsla(232, 85%, 70%, 1)" stroke="none"/><circle cx="444.444" cy="755.556" r="4.079" fill="hsla(272, 100%, 90%, 1)" stroke="none"/><circle cx="488.889" cy="755.556" r="4.079" fill="hsla(232, 85%, 70%, 1)" stroke="none"/><circle cx="533.333" cy="755.556" r="4.079" fill="hsla(272, 100%, 90%, 1)" stroke="none"/><circle cx="577.778" cy="755.556" r="4.079" fill="hsla(232, 85%, 70%, 1)" stroke="none"/><circle cx="622.222" cy="755.556" r="4.079" fill="hsla(272, 100%, 90%, 1)" stroke="none"/><circle cx="666.667" cy="755.556" r="4.079" fill="hsla(232, 85%, 70%, 1)" stroke="none"/><circle cx="711.111" cy="755.556" r="4.079" fill="hsla(272, 100%, 90%, 1)" stroke="none"/><circle cx="755.556" cy="755.556" r="4.079" fill="hsla(232, 85%, 70%, 1)" stroke="none"/><circle cx="800" cy="755.556" r="4.079" fill="hsla(272, 100%, 90%, 1)" stroke="none"/><circle cx="0" cy="800" r="4.079" fill="hsla(232, 85%, 70%, 1)" stroke="none"/><circle cx="44.444" cy="800" r="4.079" fill="hsla(272, 100%, 90%, 1)" stroke="none"/><circle cx="88.889" cy="800" r="4.079" fill="hsla(232, 85%, 70%, 1)" stroke="none"/><circle cx="133.333" cy="800" r="4.079" fill="hsla(272, 100%, 90%, 1)" stroke="none"/><circle cx="177.778" cy="800" r="4.079" fill="hsla(232, 85%, 70%, 1)" stroke="none"/><circle cx="222.222" cy="800" r="4.079" fill="hsla(272, 100%, 90%, 1)" stroke="none"/><circle cx="266.667" cy="800" r="4.079" fill="hsla(232, 85%, 70%, 1)" stroke="none"/><circle cx="311.111" cy="800" r="4.079" fill="hsla(272, 100%, 90%, 1)" stroke="none"/><circle cx="355.556" cy="800" r="4.079" fill="hsla(232, 85%, 70%, 1)" stroke="none"/><circle cx="400" cy="800" r="4.079" fill="hsla(272, 100%, 90%, 1)" stroke="none"/><circle cx="444.444" cy="800" r="4.079" fill="hsla(232, 85%, 70%, 1)" stroke="none"/><circle cx="488.889" cy="800" r="4.079" fill="hsla(272, 100%, 90%, 1)" stroke="none"/><circle cx="533.333" cy="800" r="4.079" fill="hsla(232, 85%, 70%, 1)" stroke="none"/><circle cx="577.778" cy="800" r="4.079" fill="hsla(272, 100%, 90%, 1)" stroke="none"/><circle cx="622.222" cy="800" r="4.079" fill="hsla(232, 85%, 70%, 1)" stroke="none"/><circle cx="666.667" cy="800" r="4.079" fill="hsla(272, 100%, 90%, 1)" stroke="none"/><circle cx="711.111" cy="800" r="4.079" fill="hsla(232, 85%, 70%, 1)" stroke="none"/><circle cx="755.556" cy="800" r="4.079" fill="hsla(272, 100%, 90%, 1)" stroke="none"/><circle cx="800" cy="800" r="4.079" fill="hsla(232, 85%, 70%, 1)" stroke="none"/></g></svg>