<svg xmlns="http://www.w3.org/2000/svg" version="1.1" xmlns:xlink="http://www.w3.org/1999/xlink" xmlns:svgjs="http://svgjs.dev/svgjs" viewBox="0 0 800 800"><defs><linearGradient x1="50%" y1="0%" x2="50%" y2="100%" id="ffflurry-grad" gradientTransform="rotate(270)"><stop stop-color="hsl(238, 82%, 13%)" stop-opacity="1" offset="0%"></stop><stop stop-color="hsl(37, 99%, 67%)" stop-opacity="1" offset="45%"></stop><stop stop-color="hsl(316, 73%, 52%)" stop-opacity="1" offset="100%"></stop></linearGradient></defs><rect width="100%" height="100%" fill="hsl(238, 82%, 13%)"></rect><g fill="url(#ffflurry-grad)"><rect width="275" height="3" x="203.5" y="478.5" rx="1.5" transform="rotate(45, 341, 480)" opacity="0.57"></rect><rect width="407" height="3" x="195.5" y="33.5" rx="1.5" transform="rotate(45, 399, 35)" opacity="0.81"></rect><rect width="357" height="3" x="345.5" y="392.5" rx="1.5" transform="rotate(45, 524, 394)" opacity="0.64"></rect><rect width="326" height="3" x="152" y="345.5" rx="1.5" transform="rotate(45, 315, 347)" opacity="0.69"></rect><rect width="198" height="3" x="76" y="172.5" rx="1.5" transform="rotate(45, 175, 174)" opacity="0.64"></rect><rect width="620" height="3" x="9" y="63.5" rx="1.5" transform="rotate(45, 319, 65)" opacity="0.32"></rect><rect width="445" height="3" x="153.5" y="282.5" rx="1.5" transform="rotate(45, 376, 284)" opacity="0.46"></rect><rect width="197" height="3" x="494.5" y="87.5" rx="1.5" transform="rotate(45, 593, 89)" opacity="0.85"></rect><rect width="476" height="3" x="192" y="614.5" rx="1.5" transform="rotate(45, 430, 616)" opacity="0.31"></rect><rect width="388" height="3" x="35" y="308.5" rx="1.5" transform="rotate(45, 229, 310)" opacity="0.21"></rect><rect width="471" height="3" x="362.5" y="304.5" rx="1.5" transform="rotate(45, 598, 306)" opacity="0.81"></rect><rect width="469" height="3" x="394.5" y="139.5" rx="1.5" transform="rotate(45, 629, 141)" opacity="0.98"></rect><rect width="802" height="3" x="-352" y="735.5" rx="1.5" transform="rotate(45, 49, 737)" opacity="0.69"></rect><rect width="47" height="3" x="426.5" y="94.5" rx="1.5" transform="rotate(45, 450, 96)" opacity="0.78"></rect><rect width="232" height="3" x="236" y="641.5" rx="1.5" transform="rotate(45, 352, 643)" opacity="0.39"></rect><rect width="50" height="3" x="573" y="509.5" rx="1.5" transform="rotate(45, 598, 511)" opacity="0.88"></rect><rect width="171" height="3" x="667.5" y="51.5" rx="1.5" transform="rotate(45, 753, 53)" opacity="0.43"></rect><rect width="401" height="3" x="325.5" y="78.5" rx="1.5" transform="rotate(45, 526, 80)" opacity="0.49"></rect><rect width="340" height="3" x="593" y="437.5" rx="1.5" transform="rotate(45, 763, 439)" opacity="0.33"></rect><rect width="84" height="3" x="601" y="458.5" rx="1.5" transform="rotate(45, 643, 460)" opacity="0.79"></rect><rect width="388" height="3" x="350" y="601.5" rx="1.5" transform="rotate(45, 544, 603)" opacity="0.27"></rect><rect width="370" height="3" x="74" y="506.5" rx="1.5" transform="rotate(45, 259, 508)" opacity="0.90"></rect><rect width="123" height="3" x="709.5" y="150.5" rx="1.5" transform="rotate(45, 771, 152)" opacity="0.75"></rect><rect width="342" height="3" x="592" y="560.5" rx="1.5" transform="rotate(45, 763, 562)" opacity="0.91"></rect><rect width="31" height="3" x="207.5" y="671.5" rx="1.5" transform="rotate(45, 223, 673)" opacity="0.95"></rect><rect width="306" height="3" x="378" y="153.5" rx="1.5" transform="rotate(45, 531, 155)" opacity="0.82"></rect><rect width="172" height="3" x="538" y="377.5" rx="1.5" transform="rotate(45, 624, 379)" opacity="0.60"></rect><rect width="623" height="3" x="-148.5" y="485.5" rx="1.5" transform="rotate(45, 163, 487)" opacity="0.25"></rect><rect width="425" height="3" x="126.5" y="553.5" rx="1.5" transform="rotate(45, 339, 555)" opacity="0.65"></rect><rect width="425" height="3" x="247.5" y="731.5" rx="1.5" transform="rotate(45, 460, 733)" opacity="0.21"></rect><rect width="515" height="3" x="-213.5" y="325.5" rx="1.5" transform="rotate(45, 44, 327)" opacity="0.88"></rect><rect width="295" height="3" x="440.5" y="761.5" rx="1.5" transform="rotate(45, 588, 763)" opacity="0.62"></rect><rect width="163" height="3" x="463.5" y="226.5" rx="1.5" transform="rotate(45, 545, 228)" opacity="0.76"></rect><rect width="296" height="3" x="618" y="345.5" rx="1.5" transform="rotate(45, 766, 347)" opacity="0.68"></rect><rect width="341" height="3" x="-116.5" y="481.5" rx="1.5" transform="rotate(45, 54, 483)" opacity="0.34"></rect><rect width="389" height="3" x="501.5" y="310.5" rx="1.5" transform="rotate(45, 696, 312)" opacity="0.08"></rect><rect width="419" height="3" x="83.5" y="691.5" rx="1.5" transform="rotate(45, 293, 693)" opacity="0.59"></rect><rect width="292" height="3" x="375" y="305.5" rx="1.5" transform="rotate(45, 521, 307)" opacity="0.72"></rect><rect width="512" height="3" x="89" y="752.5" rx="1.5" transform="rotate(45, 345, 754)" opacity="0.12"></rect><rect width="595" height="3" x="-231.5" y="44.5" rx="1.5" transform="rotate(45, 66, 46)" opacity="0.84"></rect><rect width="546" height="3" x="-14" y="420.5" rx="1.5" transform="rotate(45, 259, 422)" opacity="0.34"></rect><rect width="234" height="3" x="-1" y="644.5" rx="1.5" transform="rotate(45, 116, 646)" opacity="0.81"></rect><rect width="334" height="3" x="7" y="562.5" rx="1.5" transform="rotate(45, 174, 564)" opacity="0.07"></rect><rect width="140" height="3" x="86" y="721.5" rx="1.5" transform="rotate(45, 156, 723)" opacity="0.73"></rect><rect width="317" height="3" x="-28.5" y="264.5" rx="1.5" transform="rotate(45, 130, 266)" opacity="0.59"></rect><rect width="272" height="3" x="521" y="35.5" rx="1.5" transform="rotate(45, 657, 37)" opacity="0.81"></rect><rect width="325" height="3" x="534.5" y="412.5" rx="1.5" transform="rotate(45, 697, 414)" opacity="0.17"></rect><rect width="86" height="3" x="153" y="50.5" rx="1.5" transform="rotate(45, 196, 52)" opacity="0.28"></rect><rect width="276" height="3" x="118" y="579.5" rx="1.5" transform="rotate(45, 256, 581)" opacity="0.72"></rect><rect width="617" height="3" x="142.5" y="209.5" rx="1.5" transform="rotate(45, 451, 211)" opacity="0.94"></rect><rect width="675" height="3" x="-75.5" y="140.5" rx="1.5" transform="rotate(45, 262, 142)" opacity="0.97"></rect><rect width="75" height="3" x="203.5" y="750.5" rx="1.5" transform="rotate(45, 241, 752)" opacity="0.61"></rect><rect width="306" height="3" x="383" y="21.5" rx="1.5" transform="rotate(45, 536, 23)" opacity="0.52"></rect><rect width="412" height="3" x="153" y="413.5" rx="1.5" transform="rotate(45, 359, 415)" opacity="0.34"></rect><rect width="503" height="3" x="-205.5" y="600.5" rx="1.5" transform="rotate(45, 46, 602)" opacity="0.44"></rect><rect width="321" height="3" x="289.5" y="312.5" rx="1.5" transform="rotate(45, 450, 314)" opacity="0.99"></rect><rect width="558" height="3" x="407" y="537.5" rx="1.5" transform="rotate(45, 686, 539)" opacity="0.71"></rect><rect width="461" height="3" x="191.5" y="386.5" rx="1.5" transform="rotate(45, 422, 388)" opacity="0.95"></rect><rect width="257" height="3" x="150.5" y="627.5" rx="1.5" transform="rotate(45, 279, 629)" opacity="0.77"></rect><rect width="50" height="3" x="125" y="777.5" rx="1.5" transform="rotate(45, 150, 779)" opacity="0.30"></rect><rect width="121" height="3" x="-1.5" y="156.5" rx="1.5" transform="rotate(45, 59, 158)" opacity="0.28"></rect><rect width="310" height="3" x="474" y="219.5" rx="1.5" transform="rotate(45, 629, 221)" opacity="0.98"></rect><rect width="542" height="3" x="143" y="504.5" rx="1.5" transform="rotate(45, 414, 506)" opacity="0.51"></rect><rect width="706" height="3" x="-207" y="388.5" rx="1.5" transform="rotate(45, 146, 390)" opacity="0.30"></rect><rect width="320" height="3" x="330" y="537.5" rx="1.5" transform="rotate(45, 490, 539)" opacity="0.34"></rect><rect width="364" height="3" x="360" y="477.5" rx="1.5" transform="rotate(45, 542, 479)" opacity="0.88"></rect><rect width="520" height="3" x="28" y="238.5" rx="1.5" transform="rotate(45, 288, 240)" opacity="0.64"></rect><rect width="444" height="3" x="516" y="659.5" rx="1.5" transform="rotate(45, 738, 661)" opacity="0.23"></rect><rect width="485" height="3" x="122.5" y="171.5" rx="1.5" transform="rotate(45, 365, 173)" opacity="0.46"></rect><rect width="185" height="3" x="600.5" y="122.5" rx="1.5" transform="rotate(45, 693, 124)" opacity="0.09"></rect><rect width="105" height="3" x="418.5" y="454.5" rx="1.5" transform="rotate(45, 471, 456)" opacity="0.84"></rect><rect width="46" height="3" x="679" y="240.5" rx="1.5" transform="rotate(45, 702, 242)" opacity="0.65"></rect><rect width="264" height="3" x="56" y="631.5" rx="1.5" transform="rotate(45, 188, 633)" opacity="0.45"></rect><rect width="192" height="3" x="675" y="252.5" rx="1.5" transform="rotate(45, 771, 254)" opacity="0.90"></rect><rect width="172" height="3" x="631" y="183.5" rx="1.5" transform="rotate(45, 717, 185)" opacity="0.62"></rect><rect width="313" height="3" x="436.5" y="666.5" rx="1.5" transform="rotate(45, 593, 668)" opacity="0.54"></rect><rect width="76" height="3" x="673" y="742.5" rx="1.5" transform="rotate(45, 711, 744)" opacity="0.82"></rect></g></svg>