<svg xmlns="http://www.w3.org/2000/svg" xmlns:svgjs="http://svgjs.dev/svgjs" xmlns:xlink="http://www.w3.org/1999/xlink" version="1.1" viewBox="0 0 800 800"><defs><linearGradient id="ffflurry-grad" x1="50%" x2="50%" y1="0%" y2="100%" gradientTransform="rotate(270)"><stop offset="0%" stop-color="hsl(238, 82%, 13%)" stop-opacity="1"/><stop offset="45%" stop-color="hsl(37, 99%, 67%)" stop-opacity="1"/><stop offset="100%" stop-color="hsl(316, 73%, 52%)" stop-opacity="1"/></linearGradient></defs><rect width="100%" height="100%" fill="hsl(238, 82%, 13%)"/><g fill="url(#ffflurry-grad)"><rect width="275" height="3" x="203.5" y="478.5" opacity=".57" rx="1.5" transform="rotate(45, 341, 480)"/><rect width="407" height="3" x="195.5" y="33.5" opacity=".81" rx="1.5" transform="rotate(45, 399, 35)"/><rect width="357" height="3" x="345.5" y="392.5" opacity=".64" rx="1.5" transform="rotate(45, 524, 394)"/><rect width="326" height="3" x="152" y="345.5" opacity=".69" rx="1.5" transform="rotate(45, 315, 347)"/><rect width="198" height="3" x="76" y="172.5" opacity=".64" rx="1.5" transform="rotate(45, 175, 174)"/><rect width="620" height="3" x="9" y="63.5" opacity=".32" rx="1.5" transform="rotate(45, 319, 65)"/><rect width="445" height="3" x="153.5" y="282.5" opacity=".46" rx="1.5" transform="rotate(45, 376, 284)"/><rect width="197" height="3" x="494.5" y="87.5" opacity=".85" rx="1.5" transform="rotate(45, 593, 89)"/><rect width="476" height="3" x="192" y="614.5" opacity=".31" rx="1.5" transform="rotate(45, 430, 616)"/><rect width="388" height="3" x="35" y="308.5" opacity=".21" rx="1.5" transform="rotate(45, 229, 310)"/><rect width="471" height="3" x="362.5" y="304.5" opacity=".81" rx="1.5" transform="rotate(45, 598, 306)"/><rect width="469" height="3" x="394.5" y="139.5" opacity=".98" rx="1.5" transform="rotate(45, 629, 141)"/><rect width="802" height="3" x="-352" y="735.5" opacity=".69" rx="1.5" transform="rotate(45, 49, 737)"/><rect width="47" height="3" x="426.5" y="94.5" opacity=".78" rx="1.5" transform="rotate(45, 450, 96)"/><rect width="232" height="3" x="236" y="641.5" opacity=".39" rx="1.5" transform="rotate(45, 352, 643)"/><rect width="50" height="3" x="573" y="509.5" opacity=".88" rx="1.5" transform="rotate(45, 598, 511)"/><rect width="171" height="3" x="667.5" y="51.5" opacity=".43" rx="1.5" transform="rotate(45, 753, 53)"/><rect width="401" height="3" x="325.5" y="78.5" opacity=".49" rx="1.5" transform="rotate(45, 526, 80)"/><rect width="340" height="3" x="593" y="437.5" opacity=".33" rx="1.5" transform="rotate(45, 763, 439)"/><rect width="84" height="3" x="601" y="458.5" opacity=".79" rx="1.5" transform="rotate(45, 643, 460)"/><rect width="388" height="3" x="350" y="601.5" opacity=".27" rx="1.5" transform="rotate(45, 544, 603)"/><rect width="370" height="3" x="74" y="506.5" opacity=".9" rx="1.5" transform="rotate(45, 259, 508)"/><rect width="123" height="3" x="709.5" y="150.5" opacity=".75" rx="1.5" transform="rotate(45, 771, 152)"/><rect width="342" height="3" x="592" y="560.5" opacity=".91" rx="1.5" transform="rotate(45, 763, 562)"/><rect width="31" height="3" x="207.5" y="671.5" opacity=".95" rx="1.5" transform="rotate(45, 223, 673)"/><rect width="306" height="3" x="378" y="153.5" opacity=".82" rx="1.5" transform="rotate(45, 531, 155)"/><rect width="172" height="3" x="538" y="377.5" opacity=".6" rx="1.5" transform="rotate(45, 624, 379)"/><rect width="623" height="3" x="-148.5" y="485.5" opacity=".25" rx="1.5" transform="rotate(45, 163, 487)"/><rect width="425" height="3" x="126.5" y="553.5" opacity=".65" rx="1.5" transform="rotate(45, 339, 555)"/><rect width="425" height="3" x="247.5" y="731.5" opacity=".21" rx="1.5" transform="rotate(45, 460, 733)"/><rect width="515" height="3" x="-213.5" y="325.5" opacity=".88" rx="1.5" transform="rotate(45, 44, 327)"/><rect width="295" height="3" x="440.5" y="761.5" opacity=".62" rx="1.5" transform="rotate(45, 588, 763)"/><rect width="163" height="3" x="463.5" y="226.5" opacity=".76" rx="1.5" transform="rotate(45, 545, 228)"/><rect width="296" height="3" x="618" y="345.5" opacity=".68" rx="1.5" transform="rotate(45, 766, 347)"/><rect width="341" height="3" x="-116.5" y="481.5" opacity=".34" rx="1.5" transform="rotate(45, 54, 483)"/><rect width="389" height="3" x="501.5" y="310.5" opacity=".08" rx="1.5" transform="rotate(45, 696, 312)"/><rect width="419" height="3" x="83.5" y="691.5" opacity=".59" rx="1.5" transform="rotate(45, 293, 693)"/><rect width="292" height="3" x="375" y="305.5" opacity=".72" rx="1.5" transform="rotate(45, 521, 307)"/><rect width="512" height="3" x="89" y="752.5" opacity=".12" rx="1.5" transform="rotate(45, 345, 754)"/><rect width="595" height="3" x="-231.5" y="44.5" opacity=".84" rx="1.5" transform="rotate(45, 66, 46)"/><rect width="546" height="3" x="-14" y="420.5" opacity=".34" rx="1.5" transform="rotate(45, 259, 422)"/><rect width="234" height="3" x="-1" y="644.5" opacity=".81" rx="1.5" transform="rotate(45, 116, 646)"/><rect width="334" height="3" x="7" y="562.5" opacity=".07" rx="1.5" transform="rotate(45, 174, 564)"/><rect width="140" height="3" x="86" y="721.5" opacity=".73" rx="1.5" transform="rotate(45, 156, 723)"/><rect width="317" height="3" x="-28.5" y="264.5" opacity=".59" rx="1.5" transform="rotate(45, 130, 266)"/><rect width="272" height="3" x="521" y="35.5" opacity=".81" rx="1.5" transform="rotate(45, 657, 37)"/><rect width="325" height="3" x="534.5" y="412.5" opacity=".17" rx="1.5" transform="rotate(45, 697, 414)"/><rect width="86" height="3" x="153" y="50.5" opacity=".28" rx="1.5" transform="rotate(45, 196, 52)"/><rect width="276" height="3" x="118" y="579.5" opacity=".72" rx="1.5" transform="rotate(45, 256, 581)"/><rect width="617" height="3" x="142.5" y="209.5" opacity=".94" rx="1.5" transform="rotate(45, 451, 211)"/><rect width="675" height="3" x="-75.5" y="140.5" opacity=".97" rx="1.5" transform="rotate(45, 262, 142)"/><rect width="75" height="3" x="203.5" y="750.5" opacity=".61" rx="1.5" transform="rotate(45, 241, 752)"/><rect width="306" height="3" x="383" y="21.5" opacity=".52" rx="1.5" transform="rotate(45, 536, 23)"/><rect width="412" height="3" x="153" y="413.5" opacity=".34" rx="1.5" transform="rotate(45, 359, 415)"/><rect width="503" height="3" x="-205.5" y="600.5" opacity=".44" rx="1.5" transform="rotate(45, 46, 602)"/><rect width="321" height="3" x="289.5" y="312.5" opacity=".99" rx="1.5" transform="rotate(45, 450, 314)"/><rect width="558" height="3" x="407" y="537.5" opacity=".71" rx="1.5" transform="rotate(45, 686, 539)"/><rect width="461" height="3" x="191.5" y="386.5" opacity=".95" rx="1.5" transform="rotate(45, 422, 388)"/><rect width="257" height="3" x="150.5" y="627.5" opacity=".77" rx="1.5" transform="rotate(45, 279, 629)"/><rect width="50" height="3" x="125" y="777.5" opacity=".3" rx="1.5" transform="rotate(45, 150, 779)"/><rect width="121" height="3" x="-1.5" y="156.5" opacity=".28" rx="1.5" transform="rotate(45, 59, 158)"/><rect width="310" height="3" x="474" y="219.5" opacity=".98" rx="1.5" transform="rotate(45, 629, 221)"/><rect width="542" height="3" x="143" y="504.5" opacity=".51" rx="1.5" transform="rotate(45, 414, 506)"/><rect width="706" height="3" x="-207" y="388.5" opacity=".3" rx="1.5" transform="rotate(45, 146, 390)"/><rect width="320" height="3" x="330" y="537.5" opacity=".34" rx="1.5" transform="rotate(45, 490, 539)"/><rect width="364" height="3" x="360" y="477.5" opacity=".88" rx="1.5" transform="rotate(45, 542, 479)"/><rect width="520" height="3" x="28" y="238.5" opacity=".64" rx="1.5" transform="rotate(45, 288, 240)"/><rect width="444" height="3" x="516" y="659.5" opacity=".23" rx="1.5" transform="rotate(45, 738, 661)"/><rect width="485" height="3" x="122.5" y="171.5" opacity=".46" rx="1.5" transform="rotate(45, 365, 173)"/><rect width="185" height="3" x="600.5" y="122.5" opacity=".09" rx="1.5" transform="rotate(45, 693, 124)"/><rect width="105" height="3" x="418.5" y="454.5" opacity=".84" rx="1.5" transform="rotate(45, 471, 456)"/><rect width="46" height="3" x="679" y="240.5" opacity=".65" rx="1.5" transform="rotate(45, 702, 242)"/><rect width="264" height="3" x="56" y="631.5" opacity=".45" rx="1.5" transform="rotate(45, 188, 633)"/><rect width="192" height="3" x="675" y="252.5" opacity=".9" rx="1.5" transform="rotate(45, 771, 254)"/><rect width="172" height="3" x="631" y="183.5" opacity=".62" rx="1.5" transform="rotate(45, 717, 185)"/><rect width="313" height="3" x="436.5" y="666.5" opacity=".54" rx="1.5" transform="rotate(45, 593, 668)"/><rect width="76" height="3" x="673" y="742.5" opacity=".82" rx="1.5" transform="rotate(45, 711, 744)"/></g></svg>