<svg xmlns="http://www.w3.org/2000/svg" version="1.1" xmlns:xlink="http://www.w3.org/1999/xlink" xmlns:svgjs="http://svgjs.dev/svgjs" viewBox="0 0 2400 800"><defs><linearGradient x1="50%" y1="0%" x2="50%" y2="100%" id="sssurf-grad"><stop stop-color="hsl(335, 77%, 60%)" stop-opacity="1" offset="0%"></stop><stop stop-color="hsla(341, 100%, 49%, 1)" stop-opacity="1" offset="100%"></stop></linearGradient></defs><g fill="url(#sssurf-grad)" transform="matrix(1,0,0,1,10.8282470703125,224.0023593902588)"><path d="M-10,10C33.75,11.25,114.58333333333334,22.458333333333336,200,16C285.41666666666663,9.541666666666666,316.66666666666663,-26.416666666666664,400,-21C483.33333333333337,-15.583333333333334,516.6666666666666,43.458333333333336,600,42C683.3333333333334,40.541666666666664,716.6666666666666,-27.375,800,-28C883.3333333333334,-28.625,916.6666666666666,32.75,1000,39C1083.3333333333333,45.25,1116.6666666666667,5.125,1200,2C1283.3333333333333,-1.125,1316.6666666666667,25.666666666666668,1400,24C1483.3333333333333,22.333333333333332,1516.6666666666667,-8.5,1600,-6C1683.3333333333333,-3.5,1716.6666666666667,34.541666666666664,1800,36C1883.3333333333333,37.458333333333336,1916.6666666666667,-4.208333333333334,2000,1C2083.3333333333335,6.208333333333334,2118.75,59.125,2200,61C2281.25,62.875,2296.25,-60.625,2390,10C2483.75,80.625,3252.0833333333335,214.58333333333331,2650,400C2047.9166666666665,585.4166666666667,156.25,795.8333333333334,-500,900" transform="matrix(1,0,0,1,0,35)" opacity="0.05"></path><path d="M-10,10C33.75,11.25,114.58333333333334,22.458333333333336,200,16C285.41666666666663,9.541666666666666,316.66666666666663,-26.416666666666664,400,-21C483.33333333333337,-15.583333333333334,516.6666666666666,43.458333333333336,600,42C683.3333333333334,40.541666666666664,716.6666666666666,-27.375,800,-28C883.3333333333334,-28.625,916.6666666666666,32.75,1000,39C1083.3333333333333,45.25,1116.6666666666667,5.125,1200,2C1283.3333333333333,-1.125,1316.6666666666667,25.666666666666668,1400,24C1483.3333333333333,22.333333333333332,1516.6666666666667,-8.5,1600,-6C1683.3333333333333,-3.5,1716.6666666666667,34.541666666666664,1800,36C1883.3333333333333,37.458333333333336,1916.6666666666667,-4.208333333333334,2000,1C2083.3333333333335,6.208333333333334,2118.75,59.125,2200,61C2281.25,62.875,2296.25,-60.625,2390,10C2483.75,80.625,3252.0833333333335,214.58333333333331,2650,400C2047.9166666666665,585.4166666666667,156.25,795.8333333333334,-500,900" transform="matrix(1,0,0,1,0,70)" opacity="0.21"></path><path d="M-10,10C33.75,11.25,114.58333333333334,22.458333333333336,200,16C285.41666666666663,9.541666666666666,316.66666666666663,-26.416666666666664,400,-21C483.33333333333337,-15.583333333333334,516.6666666666666,43.458333333333336,600,42C683.3333333333334,40.541666666666664,716.6666666666666,-27.375,800,-28C883.3333333333334,-28.625,916.6666666666666,32.75,1000,39C1083.3333333333333,45.25,1116.6666666666667,5.125,1200,2C1283.3333333333333,-1.125,1316.6666666666667,25.666666666666668,1400,24C1483.3333333333333,22.333333333333332,1516.6666666666667,-8.5,1600,-6C1683.3333333333333,-3.5,1716.6666666666667,34.541666666666664,1800,36C1883.3333333333333,37.458333333333336,1916.6666666666667,-4.208333333333334,2000,1C2083.3333333333335,6.208333333333334,2118.75,59.125,2200,61C2281.25,62.875,2296.25,-60.625,2390,10C2483.75,80.625,3252.0833333333335,214.58333333333331,2650,400C2047.9166666666665,585.4166666666667,156.25,795.8333333333334,-500,900" transform="matrix(1,0,0,1,0,105)" opacity="0.37"></path><path d="M-10,10C33.75,11.25,114.58333333333334,22.458333333333336,200,16C285.41666666666663,9.541666666666666,316.66666666666663,-26.416666666666664,400,-21C483.33333333333337,-15.583333333333334,516.6666666666666,43.458333333333336,600,42C683.3333333333334,40.541666666666664,716.6666666666666,-27.375,800,-28C883.3333333333334,-28.625,916.6666666666666,32.75,1000,39C1083.3333333333333,45.25,1116.6666666666667,5.125,1200,2C1283.3333333333333,-1.125,1316.6666666666667,25.666666666666668,1400,24C1483.3333333333333,22.333333333333332,1516.6666666666667,-8.5,1600,-6C1683.3333333333333,-3.5,1716.6666666666667,34.541666666666664,1800,36C1883.3333333333333,37.458333333333336,1916.6666666666667,-4.208333333333334,2000,1C2083.3333333333335,6.208333333333334,2118.75,59.125,2200,61C2281.25,62.875,2296.25,-60.625,2390,10C2483.75,80.625,3252.0833333333335,214.58333333333331,2650,400C2047.9166666666665,585.4166666666667,156.25,795.8333333333334,-500,900" transform="matrix(1,0,0,1,0,140)" opacity="0.53"></path><path d="M-10,10C33.75,11.25,114.58333333333334,22.458333333333336,200,16C285.41666666666663,9.541666666666666,316.66666666666663,-26.416666666666664,400,-21C483.33333333333337,-15.583333333333334,516.6666666666666,43.458333333333336,600,42C683.3333333333334,40.541666666666664,716.6666666666666,-27.375,800,-28C883.3333333333334,-28.625,916.6666666666666,32.75,1000,39C1083.3333333333333,45.25,1116.6666666666667,5.125,1200,2C1283.3333333333333,-1.125,1316.6666666666667,25.666666666666668,1400,24C1483.3333333333333,22.333333333333332,1516.6666666666667,-8.5,1600,-6C1683.3333333333333,-3.5,1716.6666666666667,34.541666666666664,1800,36C1883.3333333333333,37.458333333333336,1916.6666666666667,-4.208333333333334,2000,1C2083.3333333333335,6.208333333333334,2118.75,59.125,2200,61C2281.25,62.875,2296.25,-60.625,2390,10C2483.75,80.625,3252.0833333333335,214.58333333333331,2650,400C2047.9166666666665,585.4166666666667,156.25,795.8333333333334,-500,900" transform="matrix(1,0,0,1,0,175)" opacity="0.68"></path><path d="M-10,10C33.75,11.25,114.58333333333334,22.458333333333336,200,16C285.41666666666663,9.541666666666666,316.66666666666663,-26.416666666666664,400,-21C483.33333333333337,-15.583333333333334,516.6666666666666,43.458333333333336,600,42C683.3333333333334,40.541666666666664,716.6666666666666,-27.375,800,-28C883.3333333333334,-28.625,916.6666666666666,32.75,1000,39C1083.3333333333333,45.25,1116.6666666666667,5.125,1200,2C1283.3333333333333,-1.125,1316.6666666666667,25.666666666666668,1400,24C1483.3333333333333,22.333333333333332,1516.6666666666667,-8.5,1600,-6C1683.3333333333333,-3.5,1716.6666666666667,34.541666666666664,1800,36C1883.3333333333333,37.458333333333336,1916.6666666666667,-4.208333333333334,2000,1C2083.3333333333335,6.208333333333334,2118.75,59.125,2200,61C2281.25,62.875,2296.25,-60.625,2390,10C2483.75,80.625,3252.0833333333335,214.58333333333331,2650,400C2047.9166666666665,585.4166666666667,156.25,795.8333333333334,-500,900" transform="matrix(1,0,0,1,0,210)" opacity="0.84"></path><path d="M-10,10C33.75,11.25,114.58333333333334,22.458333333333336,200,16C285.41666666666663,9.541666666666666,316.66666666666663,-26.416666666666664,400,-21C483.33333333333337,-15.583333333333334,516.6666666666666,43.458333333333336,600,42C683.3333333333334,40.541666666666664,716.6666666666666,-27.375,800,-28C883.3333333333334,-28.625,916.6666666666666,32.75,1000,39C1083.3333333333333,45.25,1116.6666666666667,5.125,1200,2C1283.3333333333333,-1.125,1316.6666666666667,25.666666666666668,1400,24C1483.3333333333333,22.333333333333332,1516.6666666666667,-8.5,1600,-6C1683.3333333333333,-3.5,1716.6666666666667,34.541666666666664,1800,36C1883.3333333333333,37.458333333333336,1916.6666666666667,-4.208333333333334,2000,1C2083.3333333333335,6.208333333333334,2118.75,59.125,2200,61C2281.25,62.875,2296.25,-60.625,2390,10C2483.75,80.625,3252.0833333333335,214.58333333333331,2650,400C2047.9166666666665,585.4166666666667,156.25,795.8333333333334,-500,900" transform="matrix(1,0,0,1,0,245)" opacity="1"></path></g></svg>